<svg xmlns="http://www.w3.org/2000/svg" xmlns:xlink="http://www.w3.org/1999/xlink" width="500" zoomAndPan="magnify" viewBox="0 0 375 374.999991" height="500" preserveAspectRatio="xMidYMid meet" version="1.0"><defs><g/><clipPath id="974ea80772"><path d="M 104 174 L 153.75 174 L 153.75 210 L 104 210 Z M 104 174 " clip-rule="nonzero"/></clipPath><clipPath id="5115324cd6"><path d="M 50 92.1875 L 153.75 92.1875 L 153.75 137 L 50 137 Z M 50 92.1875 " clip-rule="nonzero"/></clipPath><clipPath id="2b1fbb0022"><path d="M 37.5 121 L 75 121 L 75 167 L 37.5 167 Z M 37.5 121 " clip-rule="nonzero"/></clipPath><clipPath id="91fa981804"><path d="M 39 168 L 124 168 L 124 220.4375 L 39 220.4375 Z M 39 168 " clip-rule="nonzero"/></clipPath></defs><g clip-path="url(#974ea80772)"><path fill="#ffffff" d="M 131.351562 180.363281 C 131.351562 181.839844 130.152344 183.039062 128.675781 183.039062 C 127.203125 183.039062 126.003906 181.839844 126.003906 180.363281 C 126.003906 178.890625 127.203125 177.6875 128.675781 177.6875 C 130.152344 177.6875 131.351562 178.890625 131.351562 180.363281 Z M 154.078125 180.363281 C 154.078125 177.96875 152.136719 176.027344 149.738281 176.027344 C 147.777344 176.027344 146.121094 177.332031 145.585938 179.125 L 134.3125 179.125 C 133.746094 176.53125 131.4375 174.59375 128.675781 174.59375 C 125.488281 174.59375 122.90625 177.175781 122.90625 180.363281 C 122.90625 181.828125 123.453125 183.164062 124.351562 184.183594 C 121.113281 187.207031 117.40625 189.613281 113.390625 191.328125 C 112.898438 189.472656 111.214844 188.105469 109.207031 188.105469 C 106.8125 188.105469 104.871094 190.046875 104.871094 192.441406 C 104.871094 194.835938 106.8125 196.777344 109.207031 196.777344 C 111.027344 196.777344 112.578125 195.660156 113.222656 194.070312 C 118.089844 192.167969 122.558594 189.328125 126.390625 185.664062 C 126.726562 185.808594 127.074219 185.921875 127.4375 186 L 127.4375 197.742188 C 126.226562 198.007812 125.160156 198.652344 124.363281 199.546875 L 115.8125 194.757812 L 114.601562 196.921875 L 123.152344 201.707031 C 122.992188 202.238281 122.90625 202.800781 122.90625 203.378906 C 122.90625 206.570312 125.488281 209.152344 128.675781 209.152344 C 131.863281 209.152344 134.449219 206.570312 134.449219 203.378906 C 134.449219 200.621094 132.507812 198.3125 129.917969 197.742188 L 129.917969 186 C 132.078125 185.527344 133.785156 183.84375 134.292969 181.695312 L 145.613281 181.695312 C 145.914062 182.628906 146.523438 183.425781 147.320312 183.960938 C 144.085938 189.65625 139.917969 194.671875 135.058594 198.839844 C 135.558594 199.542969 135.945312 200.328125 136.195312 201.171875 C 141.679688 196.554688 146.265625 190.976562 149.746094 184.699219 C 152.136719 184.695312 154.078125 182.757812 154.078125 180.363281 " fill-opacity="1" fill-rule="nonzero"/></g><g clip-path="url(#5115324cd6)"><path fill="#5e17eb" d="M 150.980469 131.207031 C 150.980469 132.679688 149.78125 133.878906 148.304688 133.878906 C 146.828125 133.878906 145.628906 132.679688 145.628906 131.207031 C 145.628906 129.730469 146.828125 128.53125 148.304688 128.53125 C 149.78125 128.53125 150.980469 129.730469 150.980469 131.207031 Z M 126.550781 109.625 C 124.472656 109.625 122.78125 107.933594 122.78125 105.855469 C 122.78125 103.78125 124.472656 102.089844 126.550781 102.089844 C 128.628906 102.089844 130.316406 103.78125 130.316406 105.855469 C 130.316406 107.933594 128.628906 109.625 126.550781 109.625 Z M 92.675781 97.960938 C 92.675781 99.433594 91.476562 100.632812 90 100.632812 C 88.527344 100.632812 87.328125 99.433594 87.328125 97.960938 C 87.328125 96.484375 88.527344 95.285156 90 95.285156 C 91.476562 95.285156 92.675781 96.484375 92.675781 97.960938 Z M 85.871094 120.164062 C 85.871094 122.242188 84.179688 123.929688 82.105469 123.929688 C 80.027344 123.929688 78.335938 122.242188 78.335938 120.164062 C 78.335938 118.085938 80.027344 116.394531 82.105469 116.394531 C 84.179688 116.394531 85.871094 118.085938 85.871094 120.164062 Z M 154.078125 131.207031 C 154.078125 128.019531 151.492188 125.433594 148.304688 125.433594 C 145.21875 125.433594 142.699219 127.855469 142.542969 130.898438 L 132.648438 130.898438 C 132.09375 129.640625 130.960938 128.695312 129.582031 128.402344 L 128.402344 113.535156 C 129.375 113.300781 130.277344 112.886719 131.074219 112.332031 L 141.640625 123.289062 L 143.425781 121.566406 L 132.855469 110.609375 C 133.855469 109.289062 134.449219 107.644531 134.449219 105.855469 C 134.449219 101.496094 130.914062 97.960938 126.550781 97.960938 C 123.71875 97.960938 121.234375 99.449219 119.84375 101.6875 C 113.070312 99.03125 105.824219 97.652344 98.433594 97.652344 C 97.542969 97.652344 96.652344 97.671875 95.765625 97.710938 C 95.636719 94.640625 93.105469 92.1875 90 92.1875 C 86.8125 92.1875 84.230469 94.773438 84.230469 97.960938 C 84.230469 98.433594 84.289062 98.894531 84.398438 99.335938 C 75.449219 101.523438 67.144531 105.804688 60.078125 111.933594 C 60.605469 112.617188 60.996094 113.410156 61.210938 114.273438 C 68.046875 108.210938 76.363281 103.789062 85.542969 101.625 C 85.941406 102.105469 86.414062 102.519531 86.945312 102.855469 L 83.550781 112.398438 C 83.082031 112.3125 82.597656 112.265625 82.105469 112.265625 C 78.597656 112.265625 75.628906 114.546875 74.597656 117.707031 L 59.296875 115.257812 C 59.019531 113.132812 57.203125 111.492188 55 111.492188 C 52.605469 111.492188 50.664062 113.433594 50.664062 115.824219 C 50.664062 118.222656 52.605469 120.164062 55 120.164062 C 56.722656 120.164062 58.203125 119.15625 58.90625 117.707031 L 74.207031 120.152344 L 74.207031 120.164062 C 74.207031 124.523438 77.742188 128.0625 82.105469 128.0625 C 86.464844 128.0625 90 124.523438 90 120.164062 C 90 117.171875 88.339844 114.566406 85.886719 113.226562 L 89.28125 103.683594 C 89.515625 103.714844 89.757812 103.730469 90 103.730469 C 91.289062 103.730469 92.476562 103.308594 93.4375 102.597656 L 105.601562 113.199219 L 107.230469 111.332031 L 95.066406 100.726562 C 95.15625 100.5625 95.238281 100.394531 95.3125 100.21875 C 96.347656 100.164062 97.386719 100.128906 98.433594 100.128906 C 105.539062 100.128906 112.457031 101.492188 118.871094 104.011719 C 118.730469 104.605469 118.652344 105.21875 118.652344 105.855469 C 118.652344 110.011719 121.859375 113.414062 125.933594 113.730469 L 127.03125 127.554688 C 123.863281 124.390625 120.234375 121.808594 116.292969 119.875 C 116.3125 119.695312 116.328125 119.515625 116.328125 119.332031 C 116.328125 116.9375 114.386719 114.996094 111.992188 114.996094 C 110.46875 114.996094 109.132812 115.78125 108.359375 116.96875 C 105.15625 116.167969 101.828125 115.753906 98.433594 115.753906 C 96.007812 115.753906 93.628906 115.96875 91.316406 116.378906 C 91.632812 117.136719 91.851562 117.945312 91.96875 118.785156 C 94.070312 118.421875 96.230469 118.230469 98.433594 118.230469 C 101.589844 118.230469 104.679688 118.617188 107.65625 119.351562 C 107.667969 121.738281 109.605469 123.667969 111.992188 123.667969 C 113.3125 123.667969 114.492188 123.074219 115.289062 122.144531 C 119.078125 124.015625 122.558594 126.527344 125.578125 129.609375 C 124.8125 130.390625 124.339844 131.460938 124.339844 132.640625 C 124.339844 135.035156 126.28125 136.976562 128.675781 136.976562 C 130.820312 136.976562 132.59375 135.421875 132.945312 133.378906 L 142.957031 133.378906 C 143.816406 135.488281 145.886719 136.976562 148.304688 136.976562 C 151.492188 136.976562 154.078125 134.394531 154.078125 131.207031 " fill-opacity="1" fill-rule="nonzero"/></g><g clip-path="url(#2b1fbb0022)"><path fill="#5e17eb" d="M 44.140625 141.3125 C 44.140625 142.566406 43.121094 143.585938 41.871094 143.585938 C 40.617188 143.585938 39.597656 142.566406 39.597656 141.3125 C 39.597656 140.058594 40.617188 139.042969 41.871094 139.042969 C 43.121094 139.042969 44.140625 140.058594 44.140625 141.3125 Z M 58.5625 154.800781 C 60.640625 154.800781 62.332031 156.492188 62.332031 158.570312 C 62.332031 160.648438 60.640625 162.335938 58.5625 162.335938 C 56.484375 162.335938 54.796875 160.648438 54.796875 158.570312 C 54.796875 156.492188 56.484375 154.800781 58.5625 154.800781 Z M 74.566406 126.667969 C 74.023438 126.039062 73.558594 125.34375 73.1875 124.597656 C 70.503906 126.738281 68.097656 129.21875 66.03125 131.960938 C 65.332031 131.484375 64.492188 131.207031 63.582031 131.207031 C 61.234375 131.207031 59.324219 133.078125 59.253906 135.410156 L 45.5625 139.050781 C 45.445312 138.855469 45.3125 138.671875 45.164062 138.5 C 47.164062 132.535156 50.132812 127.015625 53.890625 122.128906 C 53.007812 121.972656 52.1875 121.636719 51.46875 121.160156 C 47.800781 126.042969 44.953125 131.421875 42.988281 137.128906 C 42.628906 137.03125 42.257812 136.976562 41.871094 136.976562 C 39.476562 136.976562 37.535156 138.917969 37.535156 141.3125 C 37.535156 143.277344 38.839844 144.933594 40.632812 145.46875 L 40.632812 166.46875 L 43.109375 166.46875 L 43.109375 145.46875 C 44.859375 144.945312 46.144531 143.351562 46.199219 141.445312 L 59.890625 137.804688 C 60.300781 138.476562 60.886719 139.023438 61.585938 139.386719 C 59.964844 142.910156 58.835938 146.703125 58.28125 150.679688 C 54.050781 150.828125 50.664062 154.300781 50.664062 158.570312 C 50.664062 162.929688 54.203125 166.46875 58.5625 166.46875 C 62.925781 166.46875 66.460938 162.929688 66.460938 158.570312 C 66.460938 154.960938 64.042969 151.921875 60.742188 150.976562 C 61.292969 147.042969 62.449219 143.296875 64.117188 139.84375 C 66.257812 139.578125 67.917969 137.757812 67.917969 135.542969 C 67.917969 134.988281 67.8125 134.460938 67.621094 133.976562 C 69.609375 131.242188 71.941406 128.785156 74.566406 126.667969 " fill-opacity="1" fill-rule="nonzero"/></g><g clip-path="url(#91fa981804)"><path fill="#ffffff" d="M 105.074219 212.773438 C 105.074219 214.851562 103.386719 216.542969 101.308594 216.542969 C 99.230469 216.542969 97.539062 214.851562 97.539062 212.773438 C 97.539062 210.695312 99.230469 209.003906 101.308594 209.003906 C 103.386719 209.003906 105.074219 210.695312 105.074219 212.773438 Z M 92.273438 193.273438 C 92.273438 194.527344 91.253906 195.542969 90.003906 195.542969 C 88.75 195.542969 87.730469 194.527344 87.730469 193.273438 C 87.730469 192.019531 88.75 191 90.003906 191 C 91.253906 191 92.273438 192.019531 92.273438 193.273438 Z M 44.894531 177.265625 C 43.421875 177.265625 42.21875 176.066406 42.21875 174.59375 C 42.21875 173.117188 43.421875 171.917969 44.894531 171.917969 C 46.367188 171.917969 47.566406 173.117188 47.566406 174.59375 C 47.566406 176.066406 46.367188 177.265625 44.894531 177.265625 Z M 65.246094 180.363281 C 65.246094 178.890625 66.445312 177.6875 67.917969 177.6875 C 69.394531 177.6875 70.59375 178.890625 70.59375 180.363281 C 70.59375 181.835938 69.394531 183.039062 67.917969 183.039062 C 66.445312 183.039062 65.246094 181.835938 65.246094 180.363281 Z M 123.554688 209.304688 C 122.894531 208.734375 122.332031 208.054688 121.894531 207.296875 C 117.832031 209.171875 113.535156 210.570312 109.089844 211.4375 C 108.457031 207.710938 105.214844 204.875 101.308594 204.875 C 100.304688 204.875 99.347656 205.0625 98.46875 205.402344 L 93.15625 196.242188 C 93.886719 195.464844 94.339844 194.421875 94.339844 193.273438 C 94.339844 190.878906 92.398438 188.9375 90.003906 188.9375 C 87.832031 188.9375 86.039062 190.53125 85.722656 192.613281 L 66.121094 195.316406 C 65.140625 192.074219 62.128906 189.710938 58.5625 189.710938 C 56.984375 189.710938 55.515625 190.175781 54.28125 190.976562 C 51.582031 187.542969 49.269531 183.789062 47.421875 179.78125 C 48.5625 179.226562 49.492188 178.300781 50.0625 177.164062 L 62.152344 180.195312 C 62.152344 180.25 62.148438 180.304688 62.148438 180.363281 C 62.148438 183.550781 64.730469 186.136719 67.917969 186.136719 C 71.105469 186.136719 73.691406 183.550781 73.691406 180.363281 C 73.691406 177.175781 71.105469 174.59375 67.917969 174.59375 C 67.640625 174.59375 67.367188 174.613281 67.097656 174.652344 L 64.742188 168.382812 L 62.421875 169.257812 L 64.777344 175.523438 C 63.917969 176.082031 63.214844 176.867188 62.753906 177.789062 L 50.660156 174.761719 C 50.664062 174.703125 50.664062 174.648438 50.664062 174.59375 C 50.664062 171.40625 48.082031 168.820312 44.894531 168.820312 C 41.707031 168.820312 39.121094 171.40625 39.121094 174.59375 C 39.121094 177.78125 41.707031 180.363281 44.894531 180.363281 C 44.90625 180.363281 44.917969 180.363281 44.929688 180.363281 C 46.890625 184.726562 49.394531 188.855469 52.410156 192.660156 C 51.320312 194.015625 50.664062 195.734375 50.664062 197.609375 C 50.664062 201.972656 54.203125 205.507812 58.5625 205.507812 C 61.039062 205.507812 63.25 204.367188 64.699219 202.585938 L 74.328125 208.148438 C 74.25 208.472656 74.207031 208.804688 74.207031 209.152344 C 74.207031 211.546875 76.148438 213.488281 78.542969 213.488281 C 80.9375 213.488281 82.878906 211.546875 82.878906 209.152344 C 82.878906 206.757812 80.9375 204.816406 78.542969 204.816406 C 77.390625 204.816406 76.34375 205.269531 75.566406 206.003906 L 65.9375 200.4375 C 66.257812 199.609375 66.4375 198.710938 66.457031 197.773438 L 86.058594 195.066406 C 86.742188 196.566406 88.25 197.609375 90.003906 197.609375 C 90.351562 197.609375 90.6875 197.5625 91.011719 197.488281 L 96.324219 206.648438 C 94.675781 207.992188 93.578125 209.988281 93.429688 212.242188 C 90.460938 211.976562 87.554688 211.484375 84.734375 210.773438 C 84.515625 211.613281 84.125 212.390625 83.609375 213.058594 C 86.878906 213.910156 90.238281 214.476562 93.660156 214.753906 C 94.539062 218.15625 97.628906 220.671875 101.308594 220.671875 C 105.265625 220.671875 108.542969 217.761719 109.117188 213.964844 C 114.113281 213.042969 118.964844 211.484375 123.554688 209.304688 " fill-opacity="1" fill-rule="nonzero"/></g><g fill="#ffffff" fill-opacity="1"><g transform="translate(167.820637, 167.050545)"><g><path d="M 23 -18.125 C 22.101562 -19.3125 21.035156 -20.25 19.796875 -20.9375 C 18.566406 -21.632812 17.367188 -21.984375 16.203125 -21.984375 C 14.929688 -21.984375 13.78125 -21.65625 12.75 -21 C 11.726562 -20.351562 10.914062 -19.453125 10.3125 -18.296875 C 9.71875 -17.148438 9.421875 -15.859375 9.421875 -14.421875 C 9.421875 -12.984375 9.71875 -11.6875 10.3125 -10.53125 C 10.914062 -9.382812 11.726562 -8.476562 12.75 -7.8125 C 13.78125 -7.15625 14.929688 -6.828125 16.203125 -6.828125 C 17.285156 -6.828125 18.441406 -7.125 19.671875 -7.71875 C 20.910156 -8.3125 22.019531 -9.125 23 -10.15625 L 27.875 -4.953125 C 26.320312 -3.273438 24.457031 -1.9375 22.28125 -0.9375 C 20.101562 0.0625 17.941406 0.5625 15.796875 0.5625 C 12.953125 0.5625 10.382812 -0.078125 8.09375 -1.359375 C 5.8125 -2.648438 4.019531 -4.429688 2.71875 -6.703125 C 1.414062 -8.972656 0.765625 -11.519531 0.765625 -14.34375 C 0.765625 -17.101562 1.425781 -19.597656 2.75 -21.828125 C 4.082031 -24.066406 5.910156 -25.820312 8.234375 -27.09375 C 10.566406 -28.363281 13.1875 -29 16.09375 -29 C 18.226562 -29 20.363281 -28.539062 22.5 -27.625 C 24.644531 -26.707031 26.4375 -25.472656 27.875 -23.921875 Z M 23 -18.125 "/></g></g></g><g fill="#ffffff" fill-opacity="1"><g transform="translate(195.85437, 167.050545)"><g><path d="M 16.296875 -29 C 19.210938 -29 21.851562 -28.363281 24.21875 -27.09375 C 26.59375 -25.820312 28.453125 -24.066406 29.796875 -21.828125 C 31.140625 -19.597656 31.8125 -17.085938 31.8125 -14.296875 C 31.8125 -11.484375 31.140625 -8.945312 29.796875 -6.6875 C 28.453125 -4.425781 26.59375 -2.648438 24.21875 -1.359375 C 21.851562 -0.078125 19.210938 0.5625 16.296875 0.5625 C 13.335938 0.5625 10.679688 -0.078125 8.328125 -1.359375 C 5.972656 -2.648438 4.125 -4.425781 2.78125 -6.6875 C 1.4375 -8.945312 0.765625 -11.484375 0.765625 -14.296875 C 0.765625 -17.085938 1.4375 -19.597656 2.78125 -21.828125 C 4.125 -24.066406 5.972656 -25.820312 8.328125 -27.09375 C 10.679688 -28.363281 13.335938 -29 16.296875 -29 Z M 16.40625 -21.984375 C 15.164062 -21.984375 14.007812 -21.644531 12.9375 -20.96875 C 11.863281 -20.289062 11.007812 -19.359375 10.375 -18.171875 C 9.738281 -16.992188 9.421875 -15.691406 9.421875 -14.265625 C 9.421875 -12.828125 9.738281 -11.507812 10.375 -10.3125 C 11.007812 -9.125 11.863281 -8.179688 12.9375 -7.484375 C 14.007812 -6.796875 15.164062 -6.453125 16.40625 -6.453125 C 17.625 -6.453125 18.753906 -6.796875 19.796875 -7.484375 C 20.847656 -8.179688 21.671875 -9.117188 22.265625 -10.296875 C 22.859375 -11.472656 23.15625 -12.796875 23.15625 -14.265625 C 23.15625 -15.691406 22.859375 -16.992188 22.265625 -18.171875 C 21.671875 -19.359375 20.859375 -20.289062 19.828125 -20.96875 C 18.796875 -21.644531 17.65625 -21.984375 16.40625 -21.984375 Z M 16.40625 -21.984375 "/></g></g></g><g fill="#ffffff" fill-opacity="1"><g transform="translate(228.438515, 167.050545)"><g><path d="M 10.40625 -11.78125 C 10.40625 -10.1875 10.863281 -8.898438 11.78125 -7.921875 C 12.695312 -6.941406 13.847656 -6.453125 15.234375 -6.453125 C 16.585938 -6.453125 17.695312 -6.929688 18.5625 -7.890625 C 19.425781 -8.859375 19.859375 -10.15625 19.859375 -11.78125 L 19.859375 -28.484375 L 28.3125 -28.484375 L 28.3125 -11.78125 C 28.3125 -9.289062 27.773438 -7.117188 26.703125 -5.265625 C 25.640625 -3.410156 24.117188 -1.972656 22.140625 -0.953125 C 20.160156 0.0546875 17.859375 0.5625 15.234375 0.5625 C 12.578125 0.5625 10.242188 0.0546875 8.234375 -0.953125 C 6.234375 -1.972656 4.6875 -3.410156 3.59375 -5.265625 C 2.5 -7.117188 1.953125 -9.289062 1.953125 -11.78125 L 1.953125 -28.484375 L 10.40625 -28.484375 Z M 10.40625 -11.78125 "/></g></g></g><g fill="#ffffff" fill-opacity="1"><g transform="translate(258.706823, 167.050545)"><g><path d="M 28.6875 0 L 19.09375 0 L 15.3125 -7.671875 L 10.84375 -7.671875 L 10.84375 0 L 2.390625 0 L 2.390625 -28.484375 L 15.6875 -28.484375 C 19.5 -28.484375 22.453125 -27.601562 24.546875 -25.84375 C 26.648438 -24.082031 27.703125 -21.585938 27.703125 -18.359375 C 27.703125 -16.273438 27.289062 -14.46875 26.46875 -12.9375 C 25.644531 -11.40625 24.457031 -10.191406 22.90625 -9.296875 Z M 10.84375 -21.984375 L 10.84375 -14.171875 L 15.6875 -14.171875 C 16.957031 -14.171875 17.9375 -14.507812 18.625 -15.1875 C 19.3125 -15.863281 19.65625 -16.84375 19.65625 -18.125 C 19.65625 -19.363281 19.3125 -20.316406 18.625 -20.984375 C 17.9375 -21.648438 16.957031 -21.984375 15.6875 -21.984375 Z M 10.84375 -21.984375 "/></g></g></g><g fill="#ffffff" fill-opacity="1"><g transform="translate(288.162556, 167.050545)"><g><path d="M 22.875 -19.296875 C 21.351562 -20.191406 19.6875 -20.945312 17.875 -21.5625 C 16.0625 -22.1875 14.570312 -22.5 13.40625 -22.5 C 12.675781 -22.5 12.097656 -22.359375 11.671875 -22.078125 C 11.253906 -21.796875 11.046875 -21.382812 11.046875 -20.84375 C 11.046875 -20.082031 11.453125 -19.488281 12.265625 -19.0625 C 13.078125 -18.644531 14.363281 -18.195312 16.125 -17.71875 C 18.132812 -17.144531 19.785156 -16.566406 21.078125 -15.984375 C 22.378906 -15.398438 23.507812 -14.507812 24.46875 -13.3125 C 25.4375 -12.125 25.921875 -10.554688 25.921875 -8.609375 C 25.921875 -6.628906 25.398438 -4.957031 24.359375 -3.59375 C 23.316406 -2.226562 21.90625 -1.207031 20.125 -0.53125 C 18.351562 0.144531 16.367188 0.484375 14.171875 0.484375 C 11.734375 0.484375 9.289062 0.0703125 6.84375 -0.75 C 4.394531 -1.570312 2.273438 -2.703125 0.484375 -4.140625 L 3.65625 -10.5625 C 5.09375 -9.3125 6.847656 -8.257812 8.921875 -7.40625 C 10.992188 -6.5625 12.773438 -6.140625 14.265625 -6.140625 C 15.179688 -6.140625 15.894531 -6.3125 16.40625 -6.65625 C 16.925781 -7.007812 17.1875 -7.515625 17.1875 -8.171875 C 17.1875 -8.953125 16.765625 -9.550781 15.921875 -9.96875 C 15.085938 -10.394531 13.789062 -10.835938 12.03125 -11.296875 C 10.050781 -11.804688 8.410156 -12.335938 7.109375 -12.890625 C 5.804688 -13.453125 4.679688 -14.3125 3.734375 -15.46875 C 2.785156 -16.632812 2.3125 -18.164062 2.3125 -20.0625 C 2.3125 -21.90625 2.796875 -23.507812 3.765625 -24.875 C 4.742188 -26.25 6.117188 -27.300781 7.890625 -28.03125 C 9.671875 -28.757812 11.738281 -29.125 14.09375 -29.125 C 16.238281 -29.125 18.363281 -28.816406 20.46875 -28.203125 C 22.582031 -27.597656 24.425781 -26.796875 26 -25.796875 Z M 22.875 -19.296875 "/></g></g></g><g fill="#ffffff" fill-opacity="1"><g transform="translate(314.774289, 167.050545)"><g><path d="M 2.390625 0 L 2.390625 -28.484375 L 25.671875 -28.484375 L 25.671875 -21.984375 L 10.84375 -21.984375 L 10.84375 -17.515625 L 24.296875 -17.515625 L 24.296875 -11.015625 L 10.84375 -11.015625 L 10.84375 -6.5 L 26.078125 -6.5 L 26.078125 0 Z M 2.390625 0 "/></g></g></g><g fill="#ffffff" fill-opacity="1"><g transform="translate(170.357311, 199.924967)"><g><path d="M 1.765625 0 L 1.765625 -16.09375 L 5.40625 -16.09375 L 5.40625 -9.390625 L 12.703125 -9.390625 L 12.703125 -16.09375 L 16.328125 -16.09375 L 16.328125 0 L 12.703125 0 L 12.703125 -6.34375 L 5.40625 -6.34375 L 5.40625 0 Z M 1.765625 0 "/></g></g></g><g fill="#ffffff" fill-opacity="1"><g transform="translate(190.752191, 199.924967)"><g><path d="M 5.125 -6.640625 C 5.125 -5.492188 5.445312 -4.585938 6.09375 -3.921875 C 6.75 -3.253906 7.625 -2.921875 8.71875 -2.921875 C 9.769531 -2.921875 10.609375 -3.25 11.234375 -3.90625 C 11.867188 -4.570312 12.1875 -5.484375 12.1875 -6.640625 L 12.1875 -16.09375 L 15.828125 -16.09375 L 15.828125 -6.640625 C 15.828125 -5.234375 15.535156 -4.007812 14.953125 -2.96875 C 14.378906 -1.9375 13.554688 -1.140625 12.484375 -0.578125 C 11.410156 -0.0234375 10.144531 0.25 8.6875 0.25 C 7.238281 0.25 5.96875 -0.0234375 4.875 -0.578125 C 3.789062 -1.140625 2.957031 -1.9375 2.375 -2.96875 C 1.789062 -4.007812 1.5 -5.234375 1.5 -6.640625 L 1.5 -16.09375 L 5.125 -16.09375 Z M 5.125 -6.640625 "/></g></g></g><g fill="#ffffff" fill-opacity="1"><g transform="translate(210.365338, 199.924967)"><g><path d="M 9.171875 -16.09375 C 10.953125 -16.09375 12.351562 -15.734375 13.375 -15.015625 C 14.40625 -14.296875 14.921875 -13.316406 14.921875 -12.078125 C 14.921875 -11.210938 14.671875 -10.460938 14.171875 -9.828125 C 13.679688 -9.191406 13.003906 -8.757812 12.140625 -8.53125 C 13.179688 -8.332031 14 -7.867188 14.59375 -7.140625 C 15.195312 -6.410156 15.5 -5.519531 15.5 -4.46875 C 15.5 -3.082031 14.953125 -1.988281 13.859375 -1.1875 C 12.773438 -0.394531 11.300781 0 9.4375 0 L 1.765625 0 L 1.765625 -16.09375 Z M 9 -9.609375 C 9.6875 -9.609375 10.222656 -9.765625 10.609375 -10.078125 C 11.003906 -10.398438 11.203125 -10.84375 11.203125 -11.40625 C 11.203125 -11.957031 11.003906 -12.382812 10.609375 -12.6875 C 10.222656 -13 9.6875 -13.148438 9 -13.140625 L 5.40625 -13.140625 L 5.40625 -9.609375 Z M 9 -2.96875 C 9.851562 -2.96875 10.523438 -3.140625 11.015625 -3.484375 C 11.503906 -3.828125 11.75 -4.304688 11.75 -4.921875 C 11.75 -5.503906 11.503906 -5.960938 11.015625 -6.296875 C 10.523438 -6.640625 9.851562 -6.800781 9 -6.78125 L 5.40625 -6.78125 L 5.40625 -2.96875 Z M 9 -2.96875 "/></g></g></g></svg>